<?xml version="1.0" encoding="utf-8"?>
<!-- Svg Vector Icons : http://www.onlinewebfonts.com/icon -->
<!DOCTYPE svg PUBLIC "-//W3C//DTD SVG 1.1//EN" "http://www.w3.org/Graphics/SVG/1.1/DTD/svg11.dtd">
<svg version="1.1" xmlns="http://www.w3.org/2000/svg" xmlns:xlink="http://www.w3.org/1999/xlink" x="0px" y="0px" viewBox="0 0 1000 1000" enable-background="new 0 0 1000 1000" xml:space="preserve">
<metadata> Svg Vector Icons : http://www.onlinewebfonts.com/icon </metadata>
<g><path d="M240.1,270.4c-12.9,0-24.5,5.4-32.9,14l0,0l-181,181C16.3,473.8,10,486.1,10,500c0,12.9,5.4,24.5,14,32.9l0,0.1l183.7,183.7l0-0.1c8.3,8.1,19.5,13,31.9,13c25.4,0,45.9-20.6,45.9-45.9c0-12.4-5-23.7-13-31.9l0,0L121.1,500.2l151-151l0,0c8.6-8.3,14-20,14-32.9C286,291,265.4,270.4,240.1,270.4z M990,500c0-13.9-6.3-26.2-16.1-34.7l-181-181l0,0c-8.4-8.6-20-14-32.9-14c-25.4,0-45.9,20.6-45.9,45.9c0,12.9,5.4,24.5,14,32.9l0,0l151,151L727.5,651.7l0,0c-8,8.3-13,19.5-13,31.9c0,25.4,20.6,45.9,45.9,45.9c12.4,0,23.7-5,32-13l0,0.1l183.7-183.7l0-0.1C984.6,524.5,990,512.9,990,500z M622.2,132.7c-19.9,0-36.8,12.7-43.2,30.3L334.5,804.9c-2,5.1-3.1,10.7-3.1,16.5c0,25.4,20.6,45.9,45.9,45.9c19.9,0,36.8-12.7,43.2-30.3l244.5-641.9c2-5.1,3.1-10.7,3.1-16.5C668.1,153.2,647.6,132.7,622.2,132.7z"/></g>
</svg>